# xmcd CD Database Entry
#
# Track frame offsets:
# 183
# 14938
# 24553
# 42130
# 56658
# 71195
# 90110
# 109155
# 121173
# 138460
# 156788
# 168175
# 187153
# 206725
# 222978
# 231978
# 244635
# 264545
# 286360
# 301565
# 318190
# 333258
#
# Disc length: 4688 seconds
#
# Revision: 1
# Processed by: cddbd v1.4b41PL1 Copyright (c) Steve Scherf et al.
# Submitted via: tcd 2.0b
#
DISCID=3b124e16
DTITLE=Green On Red - No Free Lunch and The Killer Inside Me
DYEAR=1900
DGENRE=
TTITLE0=Time Ain't Nothing
TTITLE1=Honest Man
TTITLE2=Ballad Of Guy Fawkes
TTITLE3=No Free Lunch
TTITLE4=Funny How Time Slips Away
TTITLE5=Keep On Moving
TTITLE6=Jimmy Boy
TTITLE7=No Drinkin'
TTITLE8=Broken
TTITLE9=Don't Shine Your Light On Me
TTITLE10=While The Widow Weeps
TTITLE11=Clarksville
TTITLE12=Mighty Gun
TTITLE13=Jamie
TTITLE14=Whispering Wind
TTITLE15=Ghost Band
TTITLE16=Sorry Naomi
TTITLE17=No Man's Land
TTITLE18=Track You Down
TTITLE19=Born To Fight
TTITLE20=We Ain't Free
TTITLE21=Killer Inside Me
EXTD=1 to 11 - No Free Lunch\n12 to 22 - The Killer Inside Me
EXTT0=
EXTT1=
EXTT2=
EXTT3=
EXTT4=
EXTT5=
EXTT6=
EXTT7=
EXTT8=
EXTT9=(Short Version)
EXTT10=
EXTT11=
EXTT12=
EXTT13=
EXTT14=
EXTT15=
EXTT16=
EXTT17=
EXTT18=(His Master's Voice)
EXTT19=
EXTT20=
EXTT21=
PLAYORDER=
